<svg width="40" height="40" viewBox="0 0 40 40" fill="none" xmlns="http://www.w3.org/2000/svg">
<path d="M26.741 16.787C26.741 16.373 26.611 16.02 26.383 15.738L23.65 18.471C23.906 18.543 24.183 18.586 24.481 18.586C25.801 18.586 26.741 17.826 26.741 16.786V16.787Z" fill="#3F3F3F"/>
<path d="M24.48 21.3881C23.1 21.3881 21.98 22.1481 21.98 23.3491C21.98 24.5291 23.1 25.2491 24.48 25.2491C25.86 25.2491 26.94 24.5281 26.94 23.3491C26.94 22.1481 25.86 21.3881 24.48 21.3881Z" fill="#3F3F3F"/>
<path d="M12.9 16.106L9.399 18.267V15.085L13.62 12.445H16.181V21.698L19.608 18.271C19.269 17.725 19.08 17.109 19.08 16.485C19.08 14.125 21.201 12.264 24.481 12.264C24.849 12.264 25.199 12.295 25.537 12.341L29.13 8.74705C26.635 6.71905 23.459 5.49805 20.001 5.49805C12.006 5.49805 5.501 12.003 5.501 19.998C5.501 23.457 6.722 26.633 8.75 29.128L12.901 24.977V16.104L12.9 16.106Z" fill="#3F3F3F"/>
<path d="M31.251 10.87L28.504 13.618C29.352 14.368 29.842 15.367 29.842 16.487C29.842 17.948 28.882 19.388 27.142 19.908C29.042 20.388 30.203 21.848 30.203 23.609C30.203 26.029 27.882 27.95 24.482 27.95C21.041 27.95 18.741 26.029 18.741 23.609C18.741 23.525 18.756 23.445 18.761 23.363L16.182 25.942V27.57H14.554L10.872 31.252C13.367 33.28 16.543 34.501 20.001 34.501C27.996 34.501 34.501 27.996 34.501 20.001C34.501 16.542 33.28 13.366 31.252 10.871L31.251 10.87Z" fill="#3F3F3F"/>
<path d="M16.18 27.569V25.941L14.552 27.569H16.18Z" fill="white"/>
<path d="M13.62 12.446L9.399 15.086V18.268L12.9 16.106V24.979L16.18 21.699V12.446H13.62Z" fill="white"/>
<path d="M26.741 16.787C26.741 17.827 25.801 18.587 24.481 18.587C24.183 18.587 23.906 18.543 23.65 18.472L18.76 23.363C18.755 23.446 18.74 23.525 18.74 23.609C18.74 26.029 21.04 27.95 24.481 27.95C27.881 27.95 30.202 26.029 30.202 23.609C30.202 21.848 29.042 20.388 27.141 19.908C28.881 19.388 29.841 17.948 29.841 16.487C29.841 15.367 29.351 14.368 28.503 13.618L26.382 15.739C26.611 16.021 26.74 16.374 26.74 16.788L26.741 16.787ZM24.481 25.249C23.101 25.249 21.981 24.528 21.981 23.349C21.981 22.148 23.101 21.388 24.481 21.388C25.861 21.388 26.941 22.148 26.941 23.349C26.941 24.529 25.861 25.249 24.481 25.249Z" fill="white"/>
<path d="M19.079 16.486C19.079 17.11 19.268 17.725 19.607 18.272L25.536 12.342C25.198 12.296 24.849 12.265 24.48 12.265C21.199 12.265 19.079 14.125 19.079 16.486Z" fill="white"/>
<path d="M20 2.5C10.34 2.5 2.5 10.34 2.5 20C2.5 29.66 10.34 37.5 20 37.5C29.66 37.5 37.5 29.66 37.5 20C37.5 10.34 29.66 2.5 20 2.5ZM20 5.5C23.46 5.5 26.63 6.72 29.13 8.75L25.54 12.34L19.61 18.27L16.18 21.7L8.75 29.13C6.72 26.64 5.5 23.46 5.5 20C5.5 12 12 5.5 20 5.5ZM20 34.5C16.54 34.5 13.37 33.28 10.87 31.25L31.25 10.87C33.28 13.36 34.5 16.54 34.5 20C34.5 28 28 34.5 20 34.5Z" fill="#EF4452"/>
</svg>
