<svg width="40" height="40" viewBox="0 0 40 40" fill="none" xmlns="http://www.w3.org/2000/svg">
<g clip-path="url(#clip0_268_7608)">
<path d="M28.5 3.5H11.5C7.08172 3.5 3.5 7.08172 3.5 11.5V28.5C3.5 32.9183 7.08172 36.5 11.5 36.5H28.5C32.9183 36.5 36.5 32.9183 36.5 28.5V11.5C36.5 7.08172 32.9183 3.5 28.5 3.5Z" fill="#E5E8EB"/>
<path d="M18.103 27.21C17.642 27.21 17.182 27.035 16.83 26.683L10.852 20.705C10.149 20.002 10.149 18.862 10.852 18.159C11.555 17.457 12.695 17.457 13.398 18.159L18.103 22.865L26.602 14.366C27.306 13.664 28.445 13.663 29.148 14.366C29.851 15.069 29.851 16.209 29.148 16.912L19.376 26.683C19.024 27.034 18.564 27.21 18.103 27.21Z" fill="#313D4C"/>
</g>
<defs>
<clipPath id="clip0_268_7608">
<rect width="40" height="40" fill="white"/>
</clipPath>
</defs>
</svg>
