<svg width="40" height="40" viewBox="0 0 40 40" fill="none" xmlns="http://www.w3.org/2000/svg">
<g clip-path="url(#clip0_342_787)">
<path d="M37.409 17.7179L5.721 25.4179V22.3029L37.409 14.6029V17.7179Z" fill="#03905A"/>
<path d="M24.3402 6.24636L6.16613 24.4204C5.5409 25.0456 5.5409 26.0593 6.16613 26.6846L16.5323 37.0508C17.1575 37.676 18.1712 37.676 18.7965 37.0508L36.9705 18.8767C37.5958 18.2515 37.5958 17.2378 36.9705 16.6125L26.6043 6.24635C25.9791 5.62113 24.9654 5.62113 24.3402 6.24636Z" fill="#03905A"/>
<path d="M24.3396 2.94972L6.1655 21.1238C5.54027 21.749 5.54027 22.7627 6.1655 23.3879L16.5317 33.7541C17.1569 34.3794 18.1706 34.3794 18.7958 33.7541L36.9699 15.5801C37.5951 14.9548 37.5951 13.9411 36.9699 13.3159L26.6037 2.94972C25.9785 2.32449 24.9648 2.3245 24.3396 2.94972Z" fill="#4FC578"/>
<path d="M17.3371 9.95221L13.1687 14.1206L25.799 26.7509L29.9674 22.5826L17.3371 9.95221Z" fill="#7BD58F"/>
<path d="M36.459 26.782V37.051C36.459 37.278 36.275 37.461 36.049 37.461C34.497 37.461 33.238 36.203 33.238 34.65V26.782H36.459Z" fill="#E5E8EB"/>
<path d="M28.341 26.782V34.123C28.341 34.342 28.163 34.52 27.944 34.52C26.442 34.52 25.224 33.302 25.224 31.8V26.782H28.341Z" fill="#E5E8EB"/>
<path d="M36.459 26.7819V30.6509H25.224V26.7819C25.224 23.6789 27.739 21.1639 30.842 21.1639C33.945 21.1639 36.459 23.6789 36.459 26.7819Z" fill="#E5E8EB"/>
<path d="M30.841 25.8999C31.731 25.8999 32.453 26.6219 32.453 27.5119V36.2529C32.453 36.4799 32.269 36.6629 32.043 36.6629C30.49 36.6629 29.23 35.4039 29.23 33.8499V27.5109C29.23 26.6209 29.952 25.8989 30.842 25.8989L30.841 25.8999Z" fill="#E5E8EB"/>
<path d="M13.239 3.56299H2.97C2.743 3.56299 2.56 3.74699 2.56 3.97299C2.56 5.52499 3.818 6.78399 5.371 6.78399H13.239V3.56299Z" fill="#E5E8EB"/>
<path d="M13.239 11.681H5.898C5.679 11.681 5.501 11.859 5.501 12.078C5.501 13.58 6.719 14.798 8.221 14.798H13.239V11.681Z" fill="#E5E8EB"/>
<path d="M13.239 3.56301H9.37V14.798H13.239C16.342 14.798 18.857 12.283 18.857 9.18001C18.857 6.07701 16.342 3.56301 13.239 3.56301Z" fill="#E5E8EB"/>
<path d="M14.122 9.17999C14.122 8.28999 13.4 7.56799 12.51 7.56799H3.769C3.542 7.56799 3.359 7.75199 3.359 7.97799C3.359 9.53099 4.618 10.791 6.172 10.791H12.511C13.401 10.791 14.123 10.069 14.123 9.17899L14.122 9.17999Z" fill="#E5E8EB"/>
</g>
<defs>
<clipPath id="clip0_342_787">
<rect width="40" height="40" fill="white"/>
</clipPath>
</defs>
</svg>
