<svg width="20" height="20" viewBox="0 0 20 20" fill="none" xmlns="http://www.w3.org/2000/svg">
<g clip-path="url(#clip0_295_838)">
<path d="M10 17.9565C13.935 17.9565 17.125 14.7665 17.125 10.8315C17.125 6.89648 13.935 3.70651 10 3.70651C6.06497 3.70651 2.875 6.89648 2.875 10.8315C2.875 14.7665 6.06497 17.9565 10 17.9565Z" fill="#E5E8EB"/>
<path d="M9.99999 18.727C5.64649 18.727 2.10449 15.1855 2.10449 10.8315C2.10449 6.4775 5.64599 2.936 9.99999 2.936C14.354 2.936 17.8955 6.4775 17.8955 10.8315C17.8955 15.1855 14.354 18.727 9.99999 18.727ZM9.99999 4.477C6.49599 4.477 3.64549 7.328 3.64549 10.8315C3.64549 14.335 6.49649 17.186 9.99999 17.186C13.5035 17.186 16.3545 14.335 16.3545 10.8315C16.3545 7.328 13.5035 4.477 9.99999 4.477Z" fill="#EF4452"/>
<path d="M16.8785 5.227C17.32 5.536 17.9515 5.3215 18.0875 4.8C18.395 3.622 17.9615 2.325 16.9055 1.586C15.8495 0.846498 14.483 0.882498 13.481 1.5745C13.0375 1.881 13.0515 2.5475 13.4935 2.857L16.8785 5.227Z" fill="#EF4452"/>
<path d="M3.12149 5.227C2.67999 5.536 2.04849 5.3215 1.91249 4.8C1.60499 3.622 2.03849 2.325 3.09449 1.586C4.1505 0.846498 5.51699 0.882498 6.51899 1.5745C6.96249 1.881 6.94849 2.5475 6.50649 2.857L3.12149 5.227Z" fill="#EF4452"/>
<path d="M9.99999 11.602H7.05999C6.63449 11.602 6.28949 11.257 6.28949 10.8315C6.28949 10.406 6.63449 10.061 7.05999 10.061H9.99999C10.4255 10.061 10.7705 10.406 10.7705 10.8315C10.7705 11.257 10.4255 11.602 9.99999 11.602Z" fill="#EF4452"/>
<path d="M9.99999 11.602C9.57449 11.602 9.22949 11.257 9.22949 10.8315V6.61651C9.22949 6.19101 9.57449 5.84601 9.99999 5.84601C10.4255 5.84601 10.7705 6.19101 10.7705 6.61651V10.8315C10.7705 11.257 10.4255 11.602 9.99999 11.602Z" fill="#313D4C"/>
</g>
<defs>
<clipPath id="clip0_295_838">
<rect width="20" height="20" fill="white"/>
</clipPath>
</defs>
</svg>
