<svg width="17" height="17" viewBox="0 0 17 17" fill="none" xmlns="http://www.w3.org/2000/svg">
<path d="M14.6493 7.88715C14.6493 4.49097 11.8961 1.73782 8.49997 1.73782C5.1038 1.73782 2.35065 4.49097 2.35065 7.88715V14.5953H14.6497L14.6493 7.88715Z" fill="#E32939"/>
<path d="M12.4661 7.98661C12.4661 5.79616 10.6904 4.02051 8.49997 4.02051C6.30952 4.02051 4.53387 5.79616 4.53387 7.98661V12.8614H12.4665L12.4661 7.98661Z" fill="#EF4452"/>
<path d="M8.49997 6.53311C8.95557 6.53311 9.32532 6.90286 9.32532 7.35846V13.1023H7.67505V7.35846C7.67505 6.90286 8.04437 6.53311 8.49997 6.53311Z" fill="#F56570"/>
<path d="M15.272 12.8422H1.72807C1.47786 12.8422 1.27502 13.0451 1.27502 13.2953V14.8091C1.27502 15.0593 1.47786 15.2622 1.72807 15.2622H15.272C15.5222 15.2622 15.725 15.0593 15.725 14.8091V13.2953C15.725 13.0451 15.5222 12.8422 15.272 12.8422Z" fill="#333D4B"/>
</svg>
