<svg width="40" height="40" viewBox="0 0 40 40" fill="none" xmlns="http://www.w3.org/2000/svg">
<g id="&#240;&#159;&#140;&#159; &#235;&#176;&#152;&#236;&#167;&#157;&#236;&#157;&#180;&#235;&#138;&#148; &#235;&#179;&#132;" clip-path="url(#clip0_323_763)">
<g id="Group">
<path id="Vector" d="M21.541 4.54808L24.65 10.8471C24.9 11.3541 25.384 11.7061 25.944 11.7871L32.895 12.7971C34.304 13.0021 34.867 14.7331 33.847 15.7271L28.817 20.6301C28.412 21.0251 28.227 21.5931 28.323 22.1511L29.51 29.0741C29.751 30.4771 28.278 31.5481 27.017 30.8851L20.799 27.6161C20.299 27.3531 19.701 27.3531 19.2 27.6161L12.982 30.8851C11.722 31.5481 10.249 30.4771 10.489 29.0741L11.676 22.1511C11.772 21.5941 11.587 21.0251 11.182 20.6301L6.152 15.7271C5.132 14.7331 5.695 13.0011 7.104 12.7971L14.055 11.7871C14.615 11.7061 15.098 11.3541 15.349 10.8471L18.458 4.54808C19.088 3.27108 20.909 3.27108 21.539 4.54808H21.541Z" fill="#FFCD00"/>
<g id="Group_2">
<path id="Vector_2" d="M27.658 4.15204C27.222 4.74504 26.781 6.69404 26.499 8.15604C26.361 8.87104 27.112 9.42404 27.754 9.07904C29.066 8.37404 30.796 7.37404 31.232 6.78104C31.958 5.79404 31.747 4.40604 30.76 3.68004C29.773 2.95404 28.384 3.16504 27.658 4.15204Z" fill="#FFE63B"/>
<path id="Vector_3" d="M35.979 21.3251C35.281 21.0931 33.291 21.2761 31.813 21.4601C31.09 21.5501 30.797 22.4351 31.323 22.9391C32.399 23.9691 33.885 25.3051 34.583 25.5371C35.746 25.9231 37.001 25.2931 37.387 24.1301C37.773 22.9671 37.143 21.7121 35.98 21.3261L35.979 21.3251Z" fill="#FFE63B"/>
<path id="Vector_4" d="M22.218 34.5471C22.222 33.8111 21.434 31.9751 20.803 30.6261C20.494 29.9661 19.562 29.9611 19.245 30.6171C18.598 31.9581 17.786 33.7841 17.782 34.5201C17.775 35.7451 18.762 36.7441 19.987 36.7521C21.212 36.7591 22.21 35.7721 22.218 34.5471Z" fill="#FFE63B"/>
<path id="Vector_5" d="M5.39099 25.545C6.09199 25.322 7.59399 24.004 8.68199 22.987C9.21399 22.49 8.93099 21.601 8.20999 21.502C6.73399 21.301 4.74699 21.094 4.04599 21.317C2.87899 21.688 2.23299 22.936 2.60499 24.103C2.97699 25.27 4.22399 25.917 5.39099 25.545Z" fill="#FFE63B"/>
<path id="Vector_6" d="M8.753 6.76003C9.182 7.35803 10.899 8.37903 12.203 9.10003C12.84 9.45203 13.598 8.90903 13.469 8.19203C13.204 6.72603 12.787 4.77203 12.358 4.17403C11.644 3.17903 10.258 2.95003 9.263 3.66403C8.268 4.37803 8.039 5.76403 8.753 6.75903V6.76003Z" fill="#FFE63B"/>
</g>
</g>
</g>
<defs>
<clipPath id="clip0_323_763">
<rect width="40" height="40" fill="white"/>
</clipPath>
</defs>
</svg>
