<svg width="18" height="18" viewBox="0 0 18 18" fill="none" xmlns="http://www.w3.org/2000/svg">
<g clip-path="url(#clip0_116_236)">
<path d="M8.93428 3.9924C8.56123 3.9924 8.25928 3.69046 8.25928 3.31741V1.4076C8.25928 1.03455 8.56123 0.732605 8.93428 0.732605C9.30733 0.732605 9.60928 1.03455 9.60928 1.4076V3.31741C9.60928 3.69046 9.30733 3.9924 8.93428 3.9924Z" fill="#4B596A"/>
<path d="M13.7871 6.00256C13.6143 6.00256 13.4415 5.93686 13.3097 5.80501C13.046 5.54176 13.046 5.11426 13.3097 4.85056L14.6601 3.50011C14.9234 3.23641 15.3509 3.23641 15.6146 3.50011C15.8783 3.76336 15.8783 4.19086 15.6146 4.45456L14.2641 5.80501C14.1327 5.93686 13.9595 6.00256 13.7867 6.00256H13.7871Z" fill="#4B596A"/>
<path d="M10.3158 2.0826H7.55323C7.18018 2.0826 6.87823 1.78066 6.87823 1.4076C6.87823 1.03455 7.18018 0.732605 7.55323 0.732605H10.3158C10.6888 0.732605 10.9908 1.03455 10.9908 1.4076C10.9908 1.78066 10.6888 2.0826 10.3158 2.0826Z" fill="#A3ADB7"/>
<path d="M15.4782 4.9923C15.3054 4.9923 15.1326 4.9266 15.0007 4.79475L14.3203 4.11435C14.0566 3.8511 14.0566 3.42315 14.3203 3.1599C14.584 2.8962 15.0111 2.8962 15.2748 3.1599L15.9552 3.8403C16.2189 4.10355 16.2189 4.5315 15.9552 4.79475C15.8233 4.9266 15.651 4.9923 15.4782 4.9923Z" fill="#A3ADB7"/>
<path d="M8.93478 16.5924C12.4763 16.5924 15.3473 13.7214 15.3473 10.1799C15.3473 6.63837 12.4763 3.7674 8.93478 3.7674C5.39325 3.7674 2.52228 6.63837 2.52228 10.1799C2.52228 13.7214 5.39325 16.5924 8.93478 16.5924Z" fill="#E5E8EB"/>
<path d="M8.9343 17.2674C5.02605 17.2674 1.8468 14.0882 1.8468 10.1799C1.8468 6.27166 5.02605 3.09241 8.9343 3.09241C12.8426 3.09241 16.0218 6.27166 16.0218 10.1799C16.0218 14.0882 12.8426 17.2674 8.9343 17.2674ZM8.9343 4.44241C5.7708 4.44241 3.1968 7.01641 3.1968 10.1799C3.1968 13.3434 5.7708 15.9174 8.9343 15.9174C12.0978 15.9174 14.6718 13.3434 14.6718 10.1799C14.6718 7.01641 12.0978 4.44241 8.9343 4.44241Z" fill="#A3ADB7"/>
<path d="M8.93429 10.8734C8.55134 10.8734 8.24084 10.5629 8.24084 10.1799V6.38641C8.24084 6.00346 8.55134 5.69296 8.93429 5.69296C9.31724 5.69296 9.62775 6.00346 9.62775 6.38641V10.1799C9.62775 10.5629 9.31724 10.8734 8.93429 10.8734Z" fill="#FD2D4C"/>
</g>
<defs>
<clipPath id="clip0_116_236">
<rect width="18" height="18" fill="white"/>
</clipPath>
</defs>
</svg>
