<svg width="40" height="40" viewBox="0 0 40 40" fill="none" xmlns="http://www.w3.org/2000/svg">
<g clip-path="url(#clip0_342_755)">
<path d="M33.091 4.79895H6.909C5.3024 4.79895 4 6.10135 4 7.70795V32.9199C4 34.5265 5.3024 35.8289 6.909 35.8289H33.091C34.6976 35.8289 36 34.5265 36 32.9199V7.70795C36 6.10135 34.6976 4.79895 33.091 4.79895Z" fill="#E5E9EE"/>
<path d="M11 19.453C11 19 11.233 18.578 11.618 18.338L14.627 16.456C14.934 16.264 15.289 16.162 15.651 16.162C16.717 16.162 17.582 17.026 17.582 18.093V29.247C17.582 30.126 16.869 30.839 15.99 30.839C15.111 30.839 14.398 30.126 14.398 29.247V19.715L13.008 20.573C12.132 21.114 11.002 20.484 11.002 19.454L11 19.453Z" fill="#EF4452"/>
<path d="M19.235 17.647C19.235 16.934 19.813 16.356 20.526 16.356H27.839C28.48 16.356 29 16.876 29 17.517C29 18.263 28.847 19 28.549 19.684L24.125 29.862C23.867 30.455 23.282 30.839 22.635 30.839C21.457 30.839 20.671 29.626 21.151 28.551L25.448 18.939H20.527C19.814 18.939 19.236 18.361 19.236 17.648L19.235 17.647Z" fill="#EF4452"/>
<path d="M6.909 4.79895H33.091C34.697 4.79895 36 6.10295 36 7.70795V12.394H4V7.70795C4 6.10195 5.304 4.79895 6.909 4.79895Z" fill="#FDAEB3"/>
<path d="M10.303 7.223C9.633 7.223 9.091 6.681 9.091 6.011V3.587C9.091 2.917 9.633 2.375 10.303 2.375C10.973 2.375 11.515 2.917 11.515 3.587V6.011C11.515 6.681 10.973 7.223 10.303 7.223Z" fill="#4B596A"/>
<path d="M16.768 7.223C16.098 7.223 15.556 6.681 15.556 6.011V3.587C15.556 2.917 16.098 2.375 16.768 2.375C17.438 2.375 17.98 2.917 17.98 3.587V6.011C17.98 6.681 17.438 7.223 16.768 7.223Z" fill="#4B596A"/>
<path d="M23.232 7.223C22.562 7.223 22.02 6.681 22.02 6.011V3.587C22.02 2.917 22.562 2.375 23.232 2.375C23.902 2.375 24.444 2.917 24.444 3.587V6.011C24.444 6.681 23.902 7.223 23.232 7.223Z" fill="#4B596A"/>
<path d="M29.697 7.223C29.027 7.223 28.485 6.681 28.485 6.011V3.587C28.485 2.917 29.027 2.375 29.697 2.375C30.367 2.375 30.909 2.917 30.909 3.587V6.011C30.909 6.681 30.367 7.223 29.697 7.223Z" fill="#4B596A"/>
</g>
<defs>
<clipPath id="clip0_342_755">
<rect width="40" height="40" fill="white"/>
</clipPath>
</defs>
</svg>
