<svg width="40" height="40" viewBox="0 0 40 40" fill="none" xmlns="http://www.w3.org/2000/svg">
<g clip-path="url(#clip0_342_817)">
<path d="M28.5 3.5H11.5C7.08172 3.5 3.5 7.08172 3.5 11.5V28.5C3.5 32.9183 7.08172 36.5 11.5 36.5H28.5C32.9183 36.5 36.5 32.9183 36.5 28.5V11.5C36.5 7.08172 32.9183 3.5 28.5 3.5Z" fill="#A26DE7"/>
<path d="M18.183 18.651L14.539 27.016C13.969 28.325 14.928 29.79 16.356 29.79H23.643C25.071 29.79 26.031 28.325 25.46 27.016L21.816 18.651C21.124 17.063 18.873 17.063 18.181 18.651H18.183Z" fill="white"/>
<path d="M20 15.5871C21.4845 15.5871 22.688 14.3836 22.688 12.8991C22.688 11.4145 21.4845 10.2111 20 10.2111C18.5155 10.2111 17.312 11.4145 17.312 12.8991C17.312 14.3836 18.5155 15.5871 20 15.5871Z" fill="white"/>
</g>
<defs>
<clipPath id="clip0_342_817">
<rect width="40" height="40" fill="white"/>
</clipPath>
</defs>
</svg>
