<svg width="40" height="40" viewBox="0 0 40 40" fill="none" xmlns="http://www.w3.org/2000/svg">
<g id="&#240;&#159;&#167;&#158; &#236;&#167;&#128;&#235;&#139;&#136;" clip-path="url(#clip0_323_773)">
<g id="Group">
<g id="Group_2">
<path id="Vector" d="M36.05 33C35.52 33 35.07 33.3 34.83 33.74C34.82 33.73 34.81 33.72 34.81 33.71V33.73C34.81 33.93 33.26 34.01 31.99 33.97C31.1 33.95 30.35 33.87 30.35 33.73V33.72C29.44 33.66 28.34 33.45 27.09 33.14L26.85 34.03C28.23 35.16 29.66 35.99 31.14 36.5V36.47C31.16 36.48 31.17 36.48 31.18 36.48L30.65 37.27C31.94 37.69 33.19 37.71 34.37 37.27L33.87 36.55C34.47 36.3 34.92 35.9 35.14 35.42C35.38 35.64 35.7 35.77 36.05 35.77C36.82 35.77 37.44 35.15 37.44 34.38C37.44 33.62 36.82 33 36.05 33ZM36.05 35.13C35.64 35.13 35.31 34.79 35.31 34.38C35.31 33.97 35.64 33.64 36.05 33.64C36.46 33.64 36.79 33.97 36.79 34.38C36.79 34.79 36.46 35.13 36.05 35.13Z" fill="#FFAD00"/>
<path id="Vector_2" d="M34.81 33.71V33.73C34.81 33.93 33.26 34.01 31.99 33.97C31.1 33.95 30.35 33.87 30.35 33.73V33.72C30.35 33.17 31.09 32.51 32.07 32.34C32.01 32.24 31.96 32.13 31.96 32C31.96 31.65 32.24 31.38 32.58 31.38C32.92 31.38 33.2 31.65 33.2 32C33.2 32.13 33.15 32.24 33.08 32.34C34.06 32.51 34.79 33.16 34.81 33.71Z" fill="#F77F00"/>
</g>
<g id="Group_3">
<path id="Vector_3" d="M6.815 25.6781C6.708 25.3391 6.617 24.9901 6.548 24.6321C6.617 24.9901 6.709 25.3381 6.815 25.6781Z" fill="#93C9FF"/>
<path id="Vector_4" d="M7.75101 27.7321C7.58101 27.4541 7.42801 27.1641 7.28601 26.8661C7.42701 27.1651 7.58201 27.4531 7.75101 27.7321Z" fill="#93C9FF"/>
<path id="Vector_5" d="M34.29 23.66C33.36 19.66 29.07 19.25 26.64 20.5C24.21 21.74 22.34 25.5 20.38 25.17C20.249 25.149 20.146 25.103 20.031 25.067C20.045 25.071 20.056 25.079 20.07 25.084C17.466 27.788 10.915 28.488 8.39101 28.657C8.17201 28.378 7.96901 28.085 7.78101 27.781C9.88901 31.211 14.058 33.065 18.2 32C18.2 32 22.35 31.05 25.35 25.46C25.35 25.46 26.8 22.17 29.76 23.01C32.24 23.7 31.65 26.76 29.62 28.07C28.24 28.96 25.63 30.3 26.42 33.05C26.42 32.96 26.47 31.29 30.16 30.1C33.98 28.87 35 26.7 34.29 23.66Z" fill="#93C9FF"/>
<path id="Vector_6" d="M18.239 22.8111C18.239 22.8111 18.248 22.8761 18.265 22.9651C18.25 22.8761 18.241 22.8101 18.241 22.8101L19.971 21.6701C23.101 19.6101 22.971 15.4301 19.711 13.5701L18.681 13.0901L16.121 11.8501C15.031 11.3201 14.651 9.95005 15.321 8.94005L16.441 7.25005C16.768 6.74605 16.446 6.09205 15.881 6.00705C15.881 6.00705 15.881 6.00905 15.881 6.01005C15.841 6.00005 15.801 5.99005 15.761 5.99005H15.441C14.071 5.53005 13.191 4.74005 12.691 3.68005C11.981 4.78005 10.851 5.56005 9.261 5.99005H8.79101C8.75501 5.99005 8.723 6.00005 8.688 6.00505C8.113 6.07905 7.781 6.74105 8.111 7.25005L9.231 8.94005C9.901 9.95005 9.521 11.3201 8.431 11.8501L5.871 13.0901C4.191 13.9001 3.071 15.4101 2.701 17.1101C2.301 18.9201 2.671 21.7301 5.061 22.8101L6.13101 23.2901L6.533 24.5751C8.515 24.7261 13.536 24.8491 18.239 22.8111ZM17.227 16.3661L13.482 18.2031C12.714 18.5801 11.824 18.6191 11.026 18.3101L6.784 16.6711L17.226 16.3651L17.227 16.3661Z" fill="#93C9FF"/>
<path id="Vector_7" d="M7.21901 26.7261C7.09501 26.4531 6.98801 26.1701 6.88901 25.8821C6.98701 26.1711 7.09601 26.4531 7.21901 26.7261Z" fill="#93C9FF"/>
<path id="Vector_8" d="M9.26 5.99003C10.85 5.56003 11.98 4.78003 12.69 3.68003C13.19 4.74003 14.07 5.53003 15.44 5.99003H15.76C15.8 5.99003 15.84 6.00003 15.88 6.01003C15.88 6.00903 15.88 6.00803 15.88 6.00703C15.88 5.01803 15.48 4.11903 14.83 3.46003C14.18 2.81003 13.28 2.41003 12.28 2.41003C10.3 2.41003 8.69 4.02003 8.69 6.00003C8.72 6.00003 8.75 5.99003 8.79 5.99003H9.26Z" fill="#17202C"/>
<path id="Vector_9" d="M20.07 25.084C20.055 25.08 20.045 25.072 20.031 25.067C18.687 24.651 18.343 23.391 18.264 22.965C18.248 22.876 18.238 22.811 18.238 22.811C13.534 24.849 8.513 24.726 6.532 24.575L6.541 24.603C6.543 24.613 6.546 24.622 6.548 24.632C6.618 24.99 6.708 25.339 6.815 25.678C6.837 25.747 6.865 25.813 6.888 25.881C6.987 26.169 7.094 26.453 7.218 26.725C7.24 26.772 7.263 26.818 7.286 26.865C7.428 27.163 7.581 27.453 7.751 27.731C7.761 27.747 7.771 27.763 7.781 27.779C7.969 28.083 8.172 28.376 8.391 28.655C10.915 28.486 17.466 27.786 20.07 25.082V25.084Z" fill="#FFB72D"/>
<path id="Vector_10" d="M13.482 18.2041L17.227 16.3671L6.785 16.6731L11.027 18.3121C11.825 18.6201 12.715 18.5811 13.483 18.2051L13.482 18.2041Z" fill="#64A7FF"/>
</g>
<g id="Group_4">
<path id="Vector_11" d="M11.459 6.87199C11.6606 6.87199 11.824 6.65126 11.824 6.37899C11.824 6.10671 11.6606 5.88599 11.459 5.88599C11.2574 5.88599 11.094 6.10671 11.094 6.37899C11.094 6.65126 11.2574 6.87199 11.459 6.87199Z" fill="#17202C"/>
<path id="Vector_12" d="M13.084 6.87199C13.2856 6.87199 13.449 6.65126 13.449 6.37899C13.449 6.10671 13.2856 5.88599 13.084 5.88599C12.8824 5.88599 12.719 6.10671 12.719 6.37899C12.719 6.65126 12.8824 6.87199 13.084 6.87199Z" fill="#17202C"/>
</g>
</g>
</g>
<defs>
<clipPath id="clip0_323_773">
<rect width="40" height="40" fill="white"/>
</clipPath>
</defs>
</svg>
