<!-- 유선전화기 이모티콘 -->
<svg width="13" height="13" viewBox="0 0 13 13" fill="none" xmlns="http://www.w3.org/2000/svg">
<g clip-path="url(#clip0_277_7648)">
<path d="M6.42433 1.14107C3.51461 1.20347 2.09663 2.00655 1.44988 3.10927C1.09076 3.72157 1.07126 4.5552 1.12488 5.17562C1.16551 5.64622 1.60068 5.98162 2.06803 5.91175L4.12398 5.60462C4.32938 5.57407 4.47986 5.39532 4.47531 5.18797L4.44898 3.95362C4.44476 3.76285 4.56923 3.5945 4.75383 3.54607C5.07233 3.46255 5.63913 3.35367 6.47113 3.3358C7.30313 3.31792 7.87383 3.40242 8.19591 3.47197C8.38213 3.51227 8.51376 3.67542 8.51798 3.86587L8.54431 5.10022C8.54886 5.3079 8.70681 5.47982 8.91318 5.5016L10.9805 5.72032C11.4505 5.77005 11.8707 5.41645 11.8912 4.94455C11.9181 4.32249 11.8629 3.49049 11.4778 2.89412C10.7845 1.81999 9.33341 1.07835 6.42368 1.14075L6.42433 1.14107Z" fill="#D12030"/>
<path d="M11.8968 9.49032H1.10352L2.60892 5.08039C2.71064 4.70177 3.04507 4.43982 3.42629 4.43982H9.57367C9.95489 4.43982 10.2893 4.70177 10.391 5.08039L11.8968 9.49032Z" fill="#EF4452"/>
<path d="M1.10278 9.49033H11.8977V10.4176C11.8977 11.2151 11.2503 11.8625 10.4527 11.8625H2.54773C1.75018 11.8625 1.10278 11.2151 1.10278 10.4176V9.49033Z" fill="#D12030"/>
<path d="M5.26473 3.06897H4.62253C4.49903 3.06897 4.39893 3.16908 4.39893 3.29257V5.27539C4.39893 5.39889 4.49903 5.49899 4.62253 5.49899H5.26473C5.38822 5.49899 5.48833 5.39889 5.48833 5.27539V3.29257C5.48833 3.16908 5.38822 3.06897 5.26473 3.06897Z" fill="#EF4452"/>
<path d="M8.37727 3.06897H7.73507C7.61158 3.06897 7.51147 3.16908 7.51147 3.29257V5.27539C7.51147 5.39889 7.61158 5.49899 7.73507 5.49899H8.37727C8.50077 5.49899 8.60088 5.39889 8.60088 5.27539V3.29257C8.60088 3.16908 8.50077 3.06897 8.37727 3.06897Z" fill="#EF4452"/>
<path d="M5.48571 5.22697H4.95401C4.86534 5.22697 4.79346 5.29885 4.79346 5.38752V5.91922C4.79346 6.00789 4.86534 6.07977 4.95401 6.07977H5.48571C5.57438 6.07977 5.64626 6.00789 5.64626 5.91922V5.38752C5.64626 5.29885 5.57438 5.22697 5.48571 5.22697Z" fill="#F6F6F6"/>
<path d="M6.76598 5.22697H6.23428C6.14561 5.22697 6.07373 5.29885 6.07373 5.38752V5.91922C6.07373 6.00789 6.14561 6.07977 6.23428 6.07977H6.76598C6.85465 6.07977 6.92653 6.00789 6.92653 5.91922V5.38752C6.92653 5.29885 6.85465 5.22697 6.76598 5.22697Z" fill="#F6F6F6"/>
<path d="M8.04674 5.22697H7.51504C7.42637 5.22697 7.35449 5.29885 7.35449 5.38752V5.91922C7.35449 6.00789 7.42637 6.07977 7.51504 6.07977H8.04674C8.13541 6.07977 8.20729 6.00789 8.20729 5.91922V5.38752C8.20729 5.29885 8.13541 5.22697 8.04674 5.22697Z" fill="#F6F6F6"/>
<path d="M5.48497 6.53867H4.95327C4.86461 6.53867 4.79272 6.61055 4.79272 6.69922V7.23092C4.79272 7.31959 4.86461 7.39147 4.95327 7.39147H5.48497C5.57364 7.39147 5.64552 7.31959 5.64552 7.23092V6.69922C5.64552 6.61055 5.57364 6.53867 5.48497 6.53867Z" fill="#F6F6F6"/>
<path d="M6.76598 6.53867H6.23428C6.14561 6.53867 6.07373 6.61055 6.07373 6.69922V7.23092C6.07373 7.31959 6.14561 7.39147 6.23428 7.39147H6.76598C6.85465 7.39147 6.92653 7.31959 6.92653 7.23092V6.69922C6.92653 6.61055 6.85465 6.53867 6.76598 6.53867Z" fill="#F6F6F6"/>
<path d="M8.04601 6.53867H7.51431C7.42564 6.53867 7.35376 6.61055 7.35376 6.69922V7.23092C7.35376 7.31959 7.42564 7.39147 7.51431 7.39147H8.04601C8.13468 7.39147 8.20656 7.31959 8.20656 7.23092V6.69922C8.20656 6.61055 8.13468 6.53867 8.04601 6.53867Z" fill="#F6F6F6"/>
<path d="M5.48571 7.85037H4.95401C4.86534 7.85037 4.79346 7.92225 4.79346 8.01092V8.54262C4.79346 8.63129 4.86534 8.70317 4.95401 8.70317H5.48571C5.57438 8.70317 5.64626 8.63129 5.64626 8.54262V8.01092C5.64626 7.92225 5.57438 7.85037 5.48571 7.85037Z" fill="#F6F6F6"/>
<path d="M6.76598 7.85037H6.23428C6.14561 7.85037 6.07373 7.92225 6.07373 8.01092V8.54262C6.07373 8.63129 6.14561 8.70317 6.23428 8.70317H6.76598C6.85465 8.70317 6.92653 8.63129 6.92653 8.54262V8.01092C6.92653 7.92225 6.85465 7.85037 6.76598 7.85037Z" fill="#F6F6F6"/>
<path d="M8.04674 7.85037H7.51504C7.42637 7.85037 7.35449 7.92225 7.35449 8.01092V8.54262C7.35449 8.63129 7.42637 8.70317 7.51504 8.70317H8.04674C8.13541 8.70317 8.20729 8.63129 8.20729 8.54262V8.01092C8.20729 7.92225 8.13541 7.85037 8.04674 7.85037Z" fill="#F6F6F6"/>
</g>
<defs>
<clipPath id="clip0_277_7648">
<rect width="13" height="13" fill="white"/>
</clipPath>
</defs>
</svg>
