<svg width="40" height="40" viewBox="0 0 40 40" fill="none" xmlns="http://www.w3.org/2000/svg">
<g clip-path="url(#clip0_347_362)">
<path d="M31.954 24.7829C33.596 24.7829 34.928 23.4849 34.928 21.8829C34.928 20.2809 33.597 18.9829 31.954 18.9829H31.224C32.711 18.8279 33.874 17.6099 33.874 16.1139C33.874 14.5119 32.547 13.2139 30.91 13.2139C30.909 13.2139 30.908 13.2139 30.907 13.2139H28.952H18.134L20.153 6.35495L20.144 6.35095C20.701 4.94895 20.172 3.31595 18.827 2.53895C17.348 1.68495 15.457 2.19195 14.603 3.67095L6.708 17.1989H6.716C5.674 19.0569 5.073 21.1959 5.073 23.4769C5.073 30.5749 10.827 36.3299 17.926 36.3299H28.952V36.3209H28.954C30.596 36.3209 31.928 35.0229 31.928 33.4209C31.928 31.9259 30.763 30.7089 29.273 30.5519H30.454C32.096 30.5519 33.428 29.2539 33.428 27.6519C33.428 26.1569 32.263 24.9399 30.773 24.7829H31.954Z" fill="#FFCCA8"/>
</g>
<defs>
<clipPath id="clip0_347_362">
<rect width="40" height="40" fill="white"/>
</clipPath>
</defs>
</svg>
