<svg width="40" height="40" viewBox="0 0 40 40" fill="none" xmlns="http://www.w3.org/2000/svg">
<g clip-path="url(#clip0_347_357)">
<path d="M14.355 34.087C15.068 34.558 15.988 34.558 16.701 34.087C18.964 32.592 23.895 29.02 26.018 25.022C28.818 19.748 25.53 14.488 21.184 14.488C18.707 14.488 17.216 15.782 16.392 16.895C15.958 17.482 15.099 17.482 14.665 16.895C13.841 15.782 12.35 14.488 9.87299 14.488C5.52699 14.488 2.23899 19.748 5.03899 25.022C7.16199 29.019 12.093 32.592 14.356 34.087H14.355Z" fill="#EC4452"/>
<path d="M28.69 16.841C29.1 17.112 29.63 17.112 30.04 16.841C31.342 15.981 34.181 13.924 35.403 11.624C37.015 8.58903 35.122 5.56104 32.621 5.56104C31.195 5.56104 30.337 6.30604 29.863 6.94704C29.613 7.28504 29.119 7.28504 28.869 6.94704C28.395 6.30604 27.537 5.56104 26.111 5.56104C23.61 5.56104 21.717 8.58903 23.329 11.624C24.551 13.925 27.389 15.981 28.692 16.841H28.69Z" fill="#EC4452"/>
</g>
<defs>
<clipPath id="clip0_347_357">
<rect width="40" height="40" fill="white"/>
</clipPath>
</defs>
</svg>
