<svg width="40" height="40" viewBox="0 0 40 40" fill="none" xmlns="http://www.w3.org/2000/svg">
<g clip-path="url(#clip0_342_811)">
<path d="M28.5 3.5H11.5C7.08172 3.5 3.5 7.08172 3.5 11.5V28.5C3.5 32.9183 7.08172 36.5 11.5 36.5H28.5C32.9183 36.5 36.5 32.9183 36.5 28.5V11.5C36.5 7.08172 32.9183 3.5 28.5 3.5Z" fill="#3036D1"/>
<path d="M21.817 28.593L25.461 20.228C26.031 18.919 25.072 17.454 23.644 17.454H16.357C14.929 17.454 13.969 18.919 14.54 20.228L18.184 28.593C18.876 30.181 21.127 30.181 21.819 28.593H21.817Z" fill="white"/>
<path d="M20 15.5919C21.4845 15.5919 22.688 14.3885 22.688 12.9039C22.688 11.4194 21.4845 10.2159 20 10.2159C18.5155 10.2159 17.312 11.4194 17.312 12.9039C17.312 14.3885 18.5155 15.5919 20 15.5919Z" fill="white"/>
</g>
<defs>
<clipPath id="clip0_342_811">
<rect width="40" height="40" fill="white"/>
</clipPath>
</defs>
</svg>
