<svg width="40" height="40" viewBox="0 0 40 40" fill="none" xmlns="http://www.w3.org/2000/svg">
<g id="&#240;&#159;&#155;&#181; &#236;&#138;&#164;&#236;&#191;&#160;&#237;&#132;&#176;" clip-path="url(#clip0_323_724)">
<g id="Group">
<path id="Vector" d="M19.264 5.38098C18.743 5.38098 18.321 5.80098 18.321 6.31998C18.321 6.83898 18.743 7.25898 19.264 7.25898H22.936V5.38098H19.264Z" fill="#2F81F9"/>
<path id="Vector_2" d="M30.377 36.391C33.6758 36.391 36.35 33.7267 36.35 30.44C36.35 27.1534 33.6758 24.489 30.377 24.489C27.0782 24.489 24.404 27.1534 24.404 30.44C24.404 33.7267 27.0782 36.391 30.377 36.391Z" fill="#313D4C"/>
<path id="Vector_3" d="M30.377 33.415C32.0267 33.415 33.364 32.083 33.364 30.44C33.364 28.7969 32.0267 27.465 30.377 27.465C28.7273 27.465 27.39 28.7969 27.39 30.44C27.39 32.083 28.7273 33.415 30.377 33.415Z" fill="#6B7683"/>
<path id="Vector_4" d="M10.728 36.391C14.0268 36.391 16.701 33.7267 16.701 30.44C16.701 27.1534 14.0268 24.489 10.728 24.489C7.42921 24.489 4.755 27.1534 4.755 30.44C4.755 33.7267 7.42921 36.391 10.728 36.391Z" fill="#313D4C"/>
<path id="Vector_5" d="M19.105 18.423H6.99901C3.61701 21.986 2.73201 28.097 2.50701 30.578C2.45401 31.166 2.91301 31.672 3.50301 31.672H25.554C25.56 31.672 25.566 31.672 25.572 31.672C26.502 31.668 27.363 31.192 27.969 30.49C29.288 28.964 32.573 23.646 32.573 23.646C33.013 21.722 33.029 22.137 33.029 22.137L25.12 8.97399C24.958 8.74199 25.124 8.42399 25.408 8.42399H26.763C27.097 8.42399 27.348 8.11799 27.283 7.78999L26.535 4.03599C26.485 3.78599 26.257 3.60199 26.002 3.60999C25.051 3.63699 24.273 3.74999 23.636 3.91799C21.811 4.39999 20.718 6.39599 21.166 8.22299L25.094 23.472C25.279 24.191 24.736 24.891 23.994 24.891H20.707C19.821 24.891 19.103 24.173 19.103 23.287V18.423" fill="#64A7FF"/>
<path id="Vector_6" d="M19.104 18.423H7.008V17.066C7.008 15.923 7.936 14.996 9.078 14.996L17.033 14.996C18.176 14.996 19.103 15.924 19.103 17.066V18.423H19.104Z" fill="#2F81F9"/>
<path id="Vector_7" d="M36.997 28.8149H26.481V21.2839H30.466C34.347 21.2839 37.497 24.4339 37.497 28.3149C37.497 28.5909 37.273 28.8149 36.997 28.8149Z" fill="#64A7FF"/>
</g>
</g>
<defs>
<clipPath id="clip0_323_724">
<rect width="40" height="40" fill="white"/>
</clipPath>
</defs>
</svg>
